<svg width="24" height="25" viewBox="0 0 24 25" fill="none" xmlns="http://www.w3.org/2000/svg">
<g id="Frame">
<g id="Group">
<path id="Vector" d="M17.75 17.5V8.5C17.75 8.085 17.415 7.75 17 7.75C16.585 7.75 16.25 8.085 16.25 8.5V17.5C16.25 19.845 14.345 21.75 12 21.75C9.655 21.75 7.75 19.845 7.75 17.5V6C7.75 4.485 8.985 3.25 10.5 3.25C12.015 3.25 13.25 4.485 13.25 6V16.75C13.25 17.0815 13.1183 17.3995 12.8839 17.6339C12.6495 17.8683 12.3315 18 12 18C11.6685 18 11.3505 17.8683 11.1161 17.6339C10.8817 17.3995 10.75 17.0815 10.75 16.75V7C10.75 6.585 10.415 6.25 10 6.25C9.585 6.25 9.25 6.585 9.25 7V16.75C9.25 18.265 10.485 19.5 12 19.5C13.515 19.5 14.75 18.265 14.75 16.75V6C14.75 3.655 12.845 1.75 10.5 1.75C8.155 1.75 6.25 3.655 6.25 6V17.5C6.25 20.67 8.83 23.25 12 23.25C15.17 23.25 17.75 20.67 17.75 17.5Z" fill="#00349A"/>
</g>
</g>
</svg>
